PathFileType	4	(X/Y/Z)	Kaydara	
DataRate	CameraRate	NumFrames	NumMarkers	Units	OrigDataRate	OrigDataStartFrame	OrigNumFrames	
240.00	240.00	4	72	mm	240.00	180	359	
Frame#	Time	Hips			RightUpLeg			RightLeg			RightFoot			RightFoot_End			LeftUpLeg			LeftLeg			LeftFoot			LeftFoot_End			Spine			Spine1			Spine2			Spine3			Neck			Head			Head_End			RightShoulder			RightArm			RightForeArm			RightHand			RightHandThumb1			RightHandThumb2			RightHandThumb3			RightHandThumb3_End			RightInHandIndex			RightHandIndex1			RightHandIndex2			RightHandIndex3			RightHandIndex3_End			RightInHandMiddle			RightHandMiddle1			RightHandMiddle2			RightHandMiddle3			RightHandMiddle3_End			RightInHandRing			RightHandRing1			RightHandRing2			RightHandRing3			RightHandRing3_End			RightInHandPinky			RightHandPinky1			RightHandPinky2			RightHandPinky3			RightHandPinky3_End			LeftShoulder			LeftArm			LeftForeArm			LeftHand			LeftHandThumb1			LeftHandThumb2			LeftHandThumb3			LeftHandThumb3_End			LeftInHandIndex			LeftHandIndex1			LeftHandIndex2			LeftHandIndex3			LeftHandIndex3_End			LeftInHandMiddle			LeftHandMiddle1			LeftHandMiddle2			LeftHandMiddle3			LeftHandMiddle3_End			LeftInHandRing			LeftHandRing1			LeftHandRing2			LeftHandRing3			LeftHandRing3_End			LeftInHandPinky			LeftHandPinky1			LeftHandPinky2			LeftHandPinky3			LeftHandPinky3_End			
		X1	Y1	Z1	X2	Y2	Z2	X3	Y3	Z3	X4	Y4	Z4	X5	Y5	Z5	X6	Y6	Z6	X7	Y7	Z7	X8	Y8	Z8	X9	Y9	Z9	X10	Y10	Z10	X11	Y11	Z11	X12	Y12	Z12	X13	Y13	Z13	X14	Y14	Z14	X15	Y15	Z15	X16	Y16	Z16	X17	Y17	Z17	X18	Y18	Z18	X19	Y19	Z19	X20	Y20	Z20	X21	Y21	Z21	X22	Y22	Z22	X23	Y23	Z23	X24	Y24	Z24	X25	Y25	Z25	X26	Y26	Z26	X27	Y27	Z27	X28	Y28	Z28	X29	Y29	Z29	X30	Y30	Z30	X31	Y31	Z31	X32	Y32	Z32	X33	Y33	Z33	X34	Y34	Z34	X35	Y35	Z35	X36	Y36	Z36	X37	Y37	Z37	X38	Y38	Z38	X39	Y39	Z39	X40	Y40	Z40	X41	Y41	Z41	X42	Y42	Z42	X43	Y43	Z43	X44	Y44	Z44	X45	Y45	Z45	X46	Y46	Z46	X47	Y47	Z47	X48	Y48	Z48	X49	Y49	Z49	X50	Y50	Z50	X51	Y51	Z51	X52	Y52	Z52	X53	Y53	Z53	X54	Y54	Z54	X55	Y55	Z55	X56	Y56	Z56	X57	Y57	Z57	X58	Y58	Z58	X59	Y59	Z59	X60	Y60	Z60	X61	Y61	Z61	X62	Y62	Z62	X63	Y63	Z63	X64	Y64	Z64	X65	Y65	Z65	X66	Y66	Z66	X67	Y67	Z67	X68	Y68	Z68	X69	Y69	Z69	X70	Y70	Z70	X71	Y71	Z71	X72	Y72	Z72	

180	0.746	6198.941	914.58397	126.699	6255.004611050547	898.8929023731644	53.84552294761753	6159.614069774254	503.0895194213417	-44.625422930949426	6140.768932160822	111.7144088809241	-119.85403344820868	5989.321208645867	35.38961173918217	-31.66824825143095	6157.212410622472	903.957049707001	210.52694978296506	6066.070685813691	501.9234838327676	284.37242557634323	5993.664004998653	77.82284469367146	375.93841856404777	5872.059424543096	-4.3228011040388825	253.45419819935927	6132.1383377834545	1032.640795792623	80.99023185287629	6071.166001861183	1091.0778423821182	32.792554208692565	6005.083905617832	1145.151917408337	-21.641633220383884	5938.722300934741	1185.5457440953712	-80.06190192269432	5866.553003885945	1229.045555438951	-140.75986363208563	5798.962908437162	1268.7149364743132	-193.42087022883013	5656.869159806982	1341.3759377641543	-199.9664541333814	5912.8596076290605	1220.128094146978	-143.45629295043025	5986.483418708241	1229.8737588770114	-257.2046930324884	6105.063357477059	989.2494721992441	-318.47000358265734	6129.133707556231	964.9086795513196	-624.2698311348092	6151.299020044777	1005.752033363129	-654.129253783248	6141.270999495216	1026.9730009917985	-697.1558916301428	6132.440444755379	1036.988193972719	-728.7722872360844	6123.498696813837	1041.26272838975	-756.5432931005433	6149.753293451725	993.4719081357102	-662.5824428098053	6161.240311810233	1014.9236262384259	-728.1778303515304	6152.986268788612	1024.259559324998	-774.9508565704773	6139.549471207387	1029.2094359080709	-798.2110065866644	6122.8256808880315	1032.7302166118827	-813.5385816415336	6143.557536538645	979.5046146818019	-664.8477266402454	6151.414977515846	992.8746563642534	-730.0524671935258	6141.533105275837	1001.1424916580723	-781.178679094186	6124.902158572366	1006.1932144964056	-809.2831791835029	6106.399144099538	1009.5977935025994	-826.0747292572839	6139.0422981466745	969.1192257038812	-664.7866897479926	6142.61862843524	972.1737078694536	-723.206546211608	6133.097040690528	977.396639886183	-767.7549135140728	6116.572683801038	981.2151894765707	-794.8567905810154	6098.946535199406	983.91722522231	-810.641686420731	6132.282897241462	956.2923467134037	-662.7180436862087	6131.920402436059	951.2934898563661	-715.0879698365845	6122.861742292273	952.3680323542208	-750.484848038898	6110.115072637929	953.6499565706048	-770.1196515703634	6094.101919155737	955.1783329861281	-784.0257182563041	5867.98877452331	1209.0797223034567	-96.52392524818119	5807.906213554593	1128.9337506677646	-7.7138321076963825	5979.3085562343385	1020.4192088307859	-202.1878743110871	6062.574657502455	989.4894695288447	-459.5076969652016	6103.228407866073	1022.6275151509369	-467.6138716591454	6142.684484501877	1022.4770709255433	-468.12854696300104	6167.382826472679	1018.376509497326	-471.27720900333935	6185.59551430291	1011.5397643152503	-476.2890950306592	6096.864245263775	1013.9267942962979	-480.28844855621605	6139.536193952512	1025.2668839190937	-514.0437101322775	6169.939824867989	1019.3626709228843	-527.2324786263191	6188.182906840534	1010.4944594239801	-524.8851873323104	6202.838287896941	999.648319779383	-515.8282310099958	6087.854584895833	1002.0084631855743	-486.21293676508895	6124.60199039606	1006.6265518607593	-522.344298633638	6156.452065258078	998.5572704300305	-537.3952356278447	6177.825200680124	987.0775210832808	-534.8796921478778	6193.551427144942	974.830405598654	-525.1235388569617	6080.383475266017	993.4149990176751	-489.6667646230734	6106.781678989651	990.4340061437491	-525.4249069203362	6133.128950113493	981.7296639076094	-539.1589241887674	6152.994449217989	969.7690579536276	-537.0593592597565	6167.425377206677	957.8331243643313	-528.04099985577	6070.669216564197	982.2665086647397	-491.6489472513506	6088.84988091798	973.052986191404	-526.1137447923865	6107.627779261193	963.4878666445013	-537.9148907464923	6120.995486660231	953.5084596152324	-536.7721161808845	6133.133061057586	942.2127274855318	-529.0069914537297
181	0.75	6198.941	914.58397	126.699	6254.980902781058	898.8750136073559	53.82823047705965	6159.601118718117	503.08891021608645	-44.722083507287465	6140.726718525852	111.71845512278773	-119.97598532238037	5989.280766687357	35.40135650004861	-31.78043660935859	6157.22835987141	903.9686691119261	210.53975091977077	6066.037083982044	501.9351717046112	284.32331059597345	5993.609154174432	77.82871110329228	375.8463283592299	5872.007210904947	-4.317846520754674	253.36006304660617	6132.17398782423	1032.669690345015	81.01112856062595	6071.2409886164205	1091.143395882738	32.80648676939082	6005.195181269302	1145.2548336353432	-21.636258815537378	5938.852553086472	1185.6757354732724	-80.06055696185814	5866.702365309773	1229.2023799470069	-140.7631780813279	5799.129159525406	1268.8969832245914	-193.4276751868789	5657.038983367019	1341.581743982098	-199.96662457341043	5912.991471336673	1220.2053351668624	-143.48933496862747	5986.496353338375	1229.5033926030528	-257.3161990172581	6103.777521908952	988.3293368144534	-317.98995937889254	6127.156109472695	962.6972267026292	-623.154905174586	6149.205404859957	1003.1799386216516	-653.3365291313136	6138.92090788814	1024.1898454706168	-696.4200585426493	6129.913256651592	1034.0801518658316	-728.0249623563069	6120.82516600305	1038.269476397194	-755.7426637843794	6147.667282975223	990.931947202622	-661.650786313659	6158.938688417109	1012.0241439491028	-727.2729044288593	6150.466106007541	1021.1845960322578	-773.985872207886	6136.871343806588	1026.0762831134662	-797.2050674235629	6120.001899985353	1029.583238850844	-812.496304804467	6141.479892025266	977.0408163285529	-663.772387004179	6149.131575369993	990.1013667062953	-728.9255039372667	6139.012950909268	998.1890262421654	-779.9670364756682	6122.192249970178	1003.1749726517681	-808.0129396505907	6103.530264820558	1006.5670629074161	-824.7602637940643	6136.976728781153	966.7177249128024	-663.6096257482602	6140.381079504283	969.5469136553954	-721.8962879269519	6130.655210227996	974.6248580649897	-766.3513578258447	6113.948920952821	978.3873272611097	-793.3863629032925	6096.17382138124	981.0806541030557	-809.1247702723306	6130.232272898283	953.9784646975372	-661.419260584065	6129.723406376172	948.8245697246516	-713.593567826234	6120.505143723754	949.8028050514255	-748.8859067787903	6107.627696383506	951.0533988048918	-768.457503714681	6091.483704157035	952.5795709123377	-782.3140846728103	5868.144045653172	1209.3004922093153	-96.49414368486188	5808.103480957799	1129.3998141295908	-7.394706493681504	5978.5693846740905	1019.9064077827428	-201.99971381504645	6061.384504466406	987.572468018888	-458.56681582574106	6102.094203303664	1020.3444134194759	-467.013822918197	6141.693918185195	1020.004076262958	-467.58231686773985	6166.482932885368	1015.7874489276419	-470.71284435109095	6184.763206009817	1008.8677823802986	-475.6620362346681	6095.690303736082	1011.6491459288015	-479.535984097237	6138.401388369077	1022.580102015817	-513.3050354565368	6168.8927634117135	1016.4923550115334	-526.4196761580123	6187.228194855878	1007.5841507732374	-524.0245757077657	6201.9855101033645	996.7548988023492	-514.9268849050897	6086.656707897876	999.7938593730507	-485.3047521430946	6123.429321495914	1004.0469634452324	-521.3653588433932	6155.371933036681	995.7871819583115	-536.3147114380815	6176.854944619712	984.263872432373	-533.7315564617228	6192.691956822312	972.037514920534	-523.926004224364	6079.167021373407	991.2543734942642	-488.64870109063406	6105.569736758317	987.9902039201488	-524.2494814797591	6131.9943503641125	979.1303954776585	-537.873909825206	6151.964074447746	967.1333879843025	-535.6979507925471	6166.49833535468	955.2196334187705	-526.6278471473462	6069.435478608304	980.1878510245949	-490.4999880708115	6087.60739733991	970.7616355058602	-524.7414039409739	6106.442045416746	961.0897638767456	-536.4226411887133	6119.883267706608	951.0923866024924	-535.2085904672002	6132.110935316774	939.821240055328	-527.3886772739482
182	0.754	6198.941	914.58397	126.699	6254.955991610432	898.8553732470061	53.81027934855467	6159.587174235134	503.0863288338939	-44.818817009541874	6140.684547934223	111.72050598605497	-120.09851679265074	5989.240387016097	35.410961329493475	-31.89329750144363	6157.245407493473	903.9820661537113	210.55340192925863	6066.003970877283	501.94869402981163	284.2746383252289	5993.553345193892	77.836220754128	375.7528477930731	5871.954138522287	-4.311384060298746	253.26452772942986	6132.210156981257	1032.6985503846433	81.0312077608523	6071.316529118475	1091.2078665227486	32.81844001963839	6005.306957335034	1145.3554314996027	-21.633890508368747	5938.983062171579	1185.8021664957685	-80.06272528877861	5866.851748338621	1229.3543704766032	-140.770560954744	5799.295306107867	1269.0732362784897	-193.43905072364464	5657.210414295419	1341.784446731704	-199.97315898323842	5913.121898456789	1220.2742969327182	-143.52686391148768	5986.497086459767	1229.1044330735747	-257.4286086531574	6102.441526368641	987.3750800618478	-317.4783111654497	6125.111366602919	960.3879200697261	-621.93745649246	6147.034106166986	1000.4926481133593	-652.4384749240219	6136.4899147430015	1021.2821954591844	-695.5679499368221	6127.304116632245	1031.0420411718123	-727.1527410422917	6118.069826201463	1035.142280173305	-754.809097262428	6145.506374926012	988.2776135804079	-660.610389215614	6156.556967291944	1008.9919281924407	-726.2441939604493	6147.864979456351	1017.9684891097909	-772.8843663925484	6134.112658831079	1022.7998455741161	-796.0554239106062	6117.0985348841605	1026.2932867446239	-811.304874544484	6139.3309001811085	974.465943951835	-662.5860077969373	6146.77367335543	987.2008774771318	-727.6715848322908	6136.417840407109	995.0996843591838	-778.6142821304708	6119.408109832048	1000.0185112321701	-806.5927989844851	6100.588333076744	1003.3985690804665	-823.2898748843826	6134.842431827358	964.2079070384447	-662.3202953621904	6138.07418977532	966.7996206880646	-720.4584736519064	6128.144146040283	971.7255518723938	-764.8076696978915	6111.256891370446	975.4299658516279	-791.7671982449882	6093.334076480808	978.1151480645276	-807.4533947245927	6128.116258046036	951.5603067343525	-660.0071265453383	6127.4624418446	946.2425448259282	-711.9711631959038	6118.085452733982	947.1197386509893	-747.1485872051201	6105.078315334802	948.3379927585527	-766.6505538490082	6088.804798968291	949.8627086089607	-780.4524950546321	5868.301034882488	1209.5208391702015	-96.46767222362635	5808.308542991669	1129.8842046333411	-7.070626057879409	5977.800149377609	1019.376256402911	-201.78442283129345	6060.163073624274	985.5800086751727	-457.5581901643867	6100.919322942479	1017.9692909891148	-466.3520282794339	6140.660149147355	1017.4311692699243	-466.9798652145275	6165.5393312220895	1013.0937150080098	-470.09481785720516	6183.887841450051	1006.0877865638976	-474.98234815357654	6094.478895302676	1009.2796633485574	-478.71740478326853	6137.22615283135	1019.7832008972908	-512.4992789693972	6167.805482954087	1013.5041503533142	-525.5407439419307	6186.233850746864	1004.554663249078	-523.1004419468252	6201.093893346907	993.743619083214	-513.9655346418232	6085.424986912952	997.4902915899618	-484.3270619423105	6122.221877530499	1001.3621275182155	-520.314135827384	6154.257746427254	992.9038120918885	-535.162500680619	6175.8515775877495	981.3355990754592	-532.5146679862603	6191.800357814565	969.1315476372176	-522.6634629468285	6077.919343228825	989.0072292811282	-487.5587360002128	6104.327964704533	985.447268586715	-522.9975118105106	6130.8310519023835	976.4254718196698	-536.5124239316563	6150.906178070976	964.3910221040975	-534.2626630920092	6165.5448220679755	952.5010230310382	-525.1442249518282	6068.173743491033	978.0264099262533	-489.27659164406754	6086.340132187253	968.3780634245715	-523.2887198080239	6105.233214465457	958.5950216535068	-534.8494290764685	6118.749186922755	948.5793042727848	-533.5656653082563	6131.068094817435	937.334363803201	-525.6937955215757
183	0.758	6198.941	914.58397	126.699	6254.929859138282	898.8339550752763	53.791675822777826	6159.572191552996	503.0817476535453	-44.91558530664882	6140.642448915576	111.72053145864098	-120.22157672606431	5989.200099221805	35.418390114958974	-32.0067832951849	6157.263572112794	903.9972703090641	210.567903046685	6065.9714078605575	501.96407680862296	284.22644309129737	5993.496616859038	77.84540148608829	375.65798770546894	5871.900248203163	-4.3033877561068214	253.16760245164411	6132.246845101667	1032.7273625872447	81.05044025285656	6071.392603885493	1091.2712138367817	32.82837840258025	6005.419196755253	1145.4536451323922	-21.634566378794105	5939.11378376089	1185.9249598234974	-80.06844448474753	5867.001101371216	1229.5014379379522	-140.78204966167382	5799.461291578453	1269.2435963231537	-193.4550356519626	5657.383411879228	1341.983944482685	-199.98615861106597	5913.250814513288	1220.3348912643612	-143.56888650612788	5986.485443379424	1228.6768766527462	-257.54172917229914	6101.055802760748	986.3875235753791	-316.9346140129871	6123.0000537039905	957.9827465005277	-620.6166883854194	6144.785783963025	997.6924631651425	-651.433910520279	6133.978940453279	1018.2525042339297	-694.5982280562397	6124.614119901188	1027.876400647838	-726.1542184454709	6115.233912758794	1031.8837323391792	-753.7411689605358	6143.271194971056	985.5111796490615	-659.4601723000287	6154.095908874257	1005.8295468816677	-725.0904101996574	6145.18384348391	1014.6139314621155	-771.6449850369828	6131.274541000784	1019.3828432551393	-794.7607072922881	6114.1168849239975	1022.863068493752	-809.9629274723397	6137.111168981576	971.7822004978268	-661.2876360324601	6144.342001302705	984.1756423434251	-726.2896207769633	6133.748712547083	991.8770458451472	-777.1192730929905	6116.550881212268	996.7264378163238	-805.0216048901912	6097.574682370609	1000.0949043433777	-821.662420172492	6132.639998289918	961.5919191754449	-660.917839549689	6135.698641706824	963.9341544542046	-718.8922022083301	6125.56470981945	968.7011459145502	-763.122919046225	6108.497652254626	972.3455508520462	-789.9983671046633	6090.4285360421	975.0231356344949	-805.6266441619742	6125.935428358713	949.0399411158451	-658.4809014639669	6125.13815552395	943.5496010861107	-710.2200484921159	6115.603454636161	944.3210807388604	-745.272187053613	6102.467855042953	945.5059927659311	-764.6981138410573	6086.066285761607	947.0299803529801	-778.4402814586758	5868.459718872131	1209.7406806400559	-96.44458021822253	5808.521453190166	1130.3869802343313	-6.741867928913743	5977.001258278748	1018.8293762393904	-201.54148676811892	6058.910408247908	983.5136191530113	-456.48123727622954	6099.703630742881	1015.5039870619798	-465.62756070951025	6139.582757015266	1014.7603625714157	-466.3202020729242	6164.55140947908	1010.2974257500105	-469.4221361975532	6182.968654322813	1003.2019695723436	-474.24906920191336	6093.229900121062	1006.8201735158914	-477.83187621301795	6136.010099503745	1016.8783458377519	-511.6254608238272	6166.67735691577	1010.4003811342582	-524.5947110985143	6185.199086427744	1001.4083641107253	-522.111859595142	6200.162507040492	990.6168459465264	-512.943316742246	6084.159326293145	995.0995295391535	-483.2791519637831	6120.979314561233	998.5741128150305	-519.189838509378	6153.108904970769	989.9093942225036	-533.9378385343465	6174.814306191428	978.2949821724261	-531.2283234012809	6190.875681738953	966.1147807508523	-521.3352844538987	6076.640369635492	986.6752877392508	-486.396242903793	6103.056091856971	982.8071497089542	-521.6683761561493	6129.638564643088	973.6169765935151	-535.0738846005062	6149.820086276527	961.544085045954	-532.7529825823896	6164.56401893076	949.6794116538061	-523.5896923659743	6066.883971873287	975.7838353537855	-487.9782438351634	6085.047884183607	965.9040878407133	-521.7552487887515	6104.0009175142795	956.0055495475798	-533.1948691674958	6117.592745198363	945.9711445640559	-531.8430180995617	6130.003914536108	934.7540207335032	-523.9220953325291
